<svg xmlns="http://www.w3.org/2000/svg" width="960.432" height="1213" viewBox="0 0 960.432 1213">
  <g id="FlyersKK" transform="translate(-77.178)">
    <g id="Layer_1" data-name="Layer 1">
      <path id="Path_3684" data-name="Path 3684" d="M0,0H959V1213H0Z" transform="translate(78.61)" fill="#031220"/>
      <path id="Path_3614" data-name="Path 3614" d="M825.188,719.245H729.211a48.971,48.971,0,0,0,16.818-37.19V671.047c0-31.882,24.769-57.726,55.316-57.726h0c31.317,0,56.7-26.5,56.7-59.184h0c0-32.679-25.408-59.176-56.7-59.176h-9.286c-30.547,0-55.316-25.844-55.316-57.726h0c0-26.612-20.662-48.175-46.152-48.175H329.962c-28.367,0-51.373,24-51.373,53.614h0a54.008,54.008,0,0,0,26.621,46.994h-63.4c-26.416,0-47.833,20.712-47.833,46.2h0c0,30.585-25.67,55.379-57.332,55.379h-9.581c-32.457,0-58.766,25.415-58.766,56.767h0c0,31.352,26.31,56.767,58.766,56.767h0c31.662,0,57.332,24.793,57.332,55.371v10.556c0,25.522,21.416,46.211,47.841,46.211H454.8q2.516.23,5.106.23H825.188c28.884,0,52.3-21.916,52.3-48.95h0c0-27.045-23.42-48.962-52.308-48.958Z" transform="translate(90.177 21.002)" fill="#9bc1f9" opacity="0.3"/>
      <path id="Path_3615" data-name="Path 3615" d="M349.739,742.89c-1.451,0-2.639,1.534-2.639,3.506s1.172,3.521,2.623,3.529,2.639-1.534,2.647-3.513S351.2,742.89,349.739,742.89Zm0,.99c.82,0,1.418.368,1.418.821s-.639.813-1.418.813-1.418-.368-1.418-.821S348.961,743.88,349.739,743.88Zm0,4.725c-1.106,0-2-.568-2-1.266s.9-1.25,2-1.25,2,.568,2,1.266-.91,1.251-2.008,1.251Z" transform="translate(39.885 -61.397)" fill="#466eb6"/>
      <path id="Path_3616" data-name="Path 3616" d="M342.8,753a7.983,7.983,0,0,0-.82,3.567l-.074,25.752a2.942,2.942,0,0,0,3.033,2.823h15.737a2.936,2.936,0,0,0,3.049-2.808l.066-25.752a8.1,8.1,0,0,0-.82-3.567Z" transform="translate(40.822 -63.751)" fill="#7f1ca0"/>
      <path id="Path_3617" data-name="Path 3617" d="M342.8,753a7.983,7.983,0,0,0-.82,3.567l-.074,25.752a2.942,2.942,0,0,0,3.033,2.823h15.737a2.936,2.936,0,0,0,3.049-2.808l.066-25.752a8.1,8.1,0,0,0-.82-3.567Z" transform="translate(40.822 -63.751)" fill="#7f1ca0"/>
      <path id="Path_3618" data-name="Path 3618" d="M363.785,756.632l-.066,25.752a2.75,2.75,0,0,1-.891,2.017,3.142,3.142,0,0,1-2.158.829l-15.728-.038a2.934,2.934,0,0,1-3.033-2.823l.066-25.752a8.114,8.114,0,0,1,.82-3.567l20.138.046A8.106,8.106,0,0,1,363.785,756.632Z" transform="translate(40.822 -63.763)" fill="#f47458"/>
      <path id="Path_3619" data-name="Path 3619" d="M346.082,782.339l.074-25.752a7.984,7.984,0,0,1,.82-3.567H342.8a7.984,7.984,0,0,0-.82,3.567l-.074,25.752a2.942,2.942,0,0,0,3.033,2.823h4.172A2.934,2.934,0,0,1,346.082,782.339Z" transform="translate(40.822 -63.756)" fill="#f48c7f"/>
      <path id="Path_3620" data-name="Path 3620" d="M366.5,756.646l-.066,25.752a2.75,2.75,0,0,1-.891,2.017,3.142,3.142,0,0,1-2.158.829H356.95a2.963,2.963,0,0,0,3.082-2.808l.065-25.76a7.984,7.984,0,0,0-.82-3.567h6.409A8.1,8.1,0,0,1,366.5,756.646Z" transform="translate(38.109 -63.777)" fill="#b75742"/>
      <path id="Path_3621" data-name="Path 3621" d="M363.154,752.6,343,752.548h0a1.593,1.593,0,0,1,1.639-1.488h16.917a1.589,1.589,0,0,1,1.639,1.534Z" transform="translate(40.625 -63.299)" fill="#13375b"/>
      <rect id="Rectangle_676" data-name="Rectangle 676" width="3.202" height="21.81" transform="translate(382.725 716.679) rotate(-89.86)" fill="#355389"/>
      <path id="Path_3622" data-name="Path 3622" d="M304.53,742.079h2.4a2.684,2.684,0,0,0-1.418-.4H245.247c-3.156,0-5.737,2.117-5.737,4.733v3.015c0,2.616,2.557,4.733,5.737,4.733h59.594Z" transform="translate(59.293 -61.115)" fill="#86b1f2"/>
      <path id="Path_3623" data-name="Path 3623" d="M275.889,741.69c-3.008,0-5.459,2.033-5.459,4.534V749.6c0,2.5,2.459,4.534,5.459,4.534H313.41v-.767h-.156l-9.573-.7-1.926-6.275s3.721-3.467,3.967-3.559,7.5-.361,7.5-.361h.156v-.767Z" transform="translate(53.716 -61.117)" fill="#466eb6"/>
      <path id="Path_3624" data-name="Path 3624" d="M311.238,748.137a6.986,6.986,0,0,1,2.287-5.447H276.9c-2.77,0-5.016,1.856-5.016,4.158v2.616c0,2.3,2.246,4.158,5.016,4.158h36.6S311.238,752.755,311.238,748.137Z" transform="translate(53.454 -61.35)" fill="#fae0b2"/>
      <path id="Path_3625" data-name="Path 3625" d="M271.91,746.848v2.616a3.678,3.678,0,0,0,.147,1,10.44,10.44,0,0,1,8.122-5.692c10.516-1.81,33.366-2.079,33.366-2.079H276.9C274.156,742.69,271.91,744.546,271.91,746.848Z" transform="translate(53.449 -61.35)" fill="#daeef7"/>
      <path id="Path_3626" data-name="Path 3626" d="M301.44,774.576H304.2a2.778,2.778,0,0,0-1.639-.506H234.347A6.216,6.216,0,0,0,227.88,780v3.767a6.216,6.216,0,0,0,6.467,5.93h67.446Z" transform="translate(61.391 -68.658)" fill="#50bfa5"/>
      <path id="Path_3627" data-name="Path 3627" d="M269.02,774.09a5.946,5.946,0,0,0-6.18,5.669v4.234a5.946,5.946,0,0,0,6.18,5.669h42.464v-.951h-.156l-10.811-.882-2.188-7.855s4.213-4.342,4.491-4.457,8.491-.453,8.491-.453h.172v-.944Z" transform="translate(55.085 -68.662)" fill="#3c8f7c"/>
      <path id="Path_3628" data-name="Path 3628" d="M309.033,782.15a9.18,9.18,0,0,1,2.59-6.82H270.192a5.46,5.46,0,0,0-5.672,5.209v3.276a5.46,5.46,0,0,0,5.672,5.209h41.44S309.033,787.926,309.033,782.15Z" transform="translate(54.782 -68.951)" fill="#fae0b2"/>
      <path id="Path_3629" data-name="Path 3629" d="M264.52,780.539v3.276a4.856,4.856,0,0,0,.164,1.251,11.972,11.972,0,0,1,9.171-7.134c11.9-2.3,37.768-2.6,37.768-2.6H270.192A5.46,5.46,0,0,0,264.52,780.539Z" transform="translate(54.782 -68.951)" fill="#daeef7"/>
      <path id="Path_3630" data-name="Path 3630" d="M224.541,758.309H221.82a3.256,3.256,0,0,1,1.639-.4h68.175c3.574,0,6.467,2.1,6.467,4.7V765.6c0,2.593-2.893,4.7-6.467,4.7H224.164Z" transform="translate(62.484 -64.894)" fill="#f47458"/>
      <path id="Path_3631" data-name="Path 3631" d="M263.052,757.906c3.418,0,6.188,2.018,6.188,4.5v3.375c0,2.486-2.77,4.5-6.188,4.5H220.58v-.767h.172l10.8-.767,2.18-6.229s-4.213-3.444-4.491-3.536-8.491-.361-8.491-.361h-.172v-.767Z" transform="translate(62.708 -64.883)" fill="#b75742"/>
      <path id="Path_3632" data-name="Path 3632" d="M223.37,764.358a6.677,6.677,0,0,0-2.59-5.408h41.44c3.139,0,5.68,1.849,5.68,4.135v2.593c0,2.3-2.541,4.135-5.68,4.135H220.78S223.37,768.915,223.37,764.358Z" transform="translate(62.672 -65.137)" fill="#fae0b2"/>
      <path id="Path_3633" data-name="Path 3633" d="M267.9,763.045v2.593a3.147,3.147,0,0,1-.164,1c-1.4-2.493-4.1-4.887-9.18-5.661-11.9-1.8-37.776-2.064-37.776-2.064h41.44C265.359,758.91,267.9,760.759,267.9,763.045Z" transform="translate(62.672 -65.127)" fill="#daeef7"/>
      <path id="Path_3683" data-name="Path 3683" d="M1.748.076,8.241,0,6.493,139.978,0,140.054Z" transform="translate(529.429 698.524) rotate(10.73)" fill="#184655"/>
      <path id="Path_3634" data-name="Path 3634" d="M749.765,904.595h7.7L728.783,765.6l-6.393,1.135Z" transform="translate(-27.812 -66.685)" fill="#184655"/>
      <path id="Path_3635" data-name="Path 3635" d="M577.875,904.595h7.7L556.9,765.6l-6.4,1.135Z" transform="translate(3.195 -66.685)" fill="#184655"/>
      <path id="Path_3636" data-name="Path 3636" d="M668.875,904.786l-6.245.069L690.12,766.42l6.393,1.135Z" transform="translate(-17.032 -66.876)" fill="#184655"/>
      <path id="Path_3637" data-name="Path 3637" d="M603.35,521.41c25.334,2.539,58.119,5.216,91.034,57.5,35.965,57.12,17,142.47-11.36,166.189s-121.114,52.993-199.059,9.159c0,0-47.07-26.565-22.949-70.66,37.178-67.844,31.924-82,48.537-108.586S549.584,516.025,603.35,521.41Z" transform="translate(20.577 -9.681)" fill="#fae0b2"/>
      <path id="Path_3638" data-name="Path 3638" d="M697.76,580.315c-22.466-35.679-44.866-48.252-64.889-53.445,7.745,7.495,15.573,17.145,23.449,29.619,35.973,57.135,17.04,142.478-11.352,166.189-25.178,21.034-100.952,46.434-172.119,21.341a71.4,71.4,0,0,0,14.515,11.645C565.311,799.5,658.034,770.24,686.425,746.5S733.725,637.435,697.76,580.315Z" transform="translate(17.202 -11.09)" fill="#f7cc7f"/>
      <path id="Path_3639" data-name="Path 3639" d="M207.367,570.8c-.713,5.3,5.18,9.5,10.425,9.205a12.58,12.58,0,0,0,11.565-10.149,9,9,0,0,0-8.516-10.809,7.385,7.385,0,0,0-6.425,2.5,6.348,6.348,0,0,0-1.115,6.427c1.156,3.368,4.434,4.6,6.09,3.69a1.516,1.516,0,0,0,.9-1.551,1.574,1.574,0,0,0-1.254-1.318,1.689,1.689,0,0,0-1.639.652c-1.369-.514-2.664-2.838-1.787-5.37,1.131-3.207,5.459-3.391,8.155-1.895,3.418,1.9,3.959,6.007,2.7,9.275a10.45,10.45,0,0,1-8.762,6.382,8.041,8.041,0,0,1-8.7-7.027.821.821,0,0,0-1.639-.008Z" transform="translate(65.102 -18.573)" fill="#f48c7f"/>
      <path id="Path_3640" data-name="Path 3640" d="M535.528,634.79l-6.508,18.288,19.843-7.311Z" transform="translate(7.069 -36.223)" fill="#f79c8d"/>
      <path id="Path_3641" data-name="Path 3641" d="M556,563.87c-1.32.054-4.918,1.181-10.245,10.525-6.77,11.936-16.671,47.983-16.671,47.983l29.506,10.264,3.795-7.525,6.245-57.933S556.365,563.855,556,563.87Z" transform="translate(7.059 -19.707)" fill="#020c16"/>
      <path id="Path_3642" data-name="Path 3642" d="M600.546,557.1c-8.442,0-29.342,2.3-39.038,5.193,0,0-7.122,57.12,6.418,100.493,3.024,9.719-2.508,40.282-2.508,40.282l87.51-1.059s-10.368-73.882-6.467-85.81,4-53.53,4-53.53-.6-.084-19.671-3.161A212.474,212.474,0,0,0,600.546,557.1Z" transform="translate(1.547 -18.13)" fill="#031220"/>
      <path id="Path_3643" data-name="Path 3643" d="M620.455,885.62s-1.934,20.843-5.491,26.611.188,15.588.377,16.93,7.491,3.276,19.105,2.117,11.425-3.651,10.491-7.671-7.122-9.205-7.491-13.087,3.549-17.705,3.549-17.705Z" transform="translate(-8.158 -94.635)" fill="#f7a491"/>
      <path id="Path_3644" data-name="Path 3644" d="M561.282,724.611s-60.414-3.13-73.9,4.5,2.459,23.267,2.459,23.267,49.177,19.945,131.515,24.379c19.49,1.043,21.171-47.424,17.531-51.435S561.282,724.611,561.282,724.611Z" transform="translate(15.559 -56.842)" fill="#327f6b"/>
      <path id="Path_3645" data-name="Path 3645" d="M635.622,941.358c11.958-1.189,10.483-6.666,9.516-10.832-.607-2.6-4.033-5.677-6.081-8.576-1.066.767-2.811,2.194-8,3.628-5.393,1.481-12.786-1.457-17.5-3.3a50.1,50.1,0,0,0-1.565,14.391C612.148,938.1,623.656,942.547,635.622,941.358Z" transform="translate(-7.892 -103.096)" fill="#355389"/>
      <path id="Path_3646" data-name="Path 3646" d="M629.61,765.085c-2.41,17.038-14.36,101.843-14.36,101.843l27.728,3.207s34.1-110.7,32.35-127.626-14.515-18.349-14.515-18.349S636,719.986,629.61,765.085Z" transform="translate(-8.485 -57.011)" fill="#3c8f7c"/>
      <path id="Path_3647" data-name="Path 3647" d="M595.128,462.092s9.212-9.1,16.622,1.964c0,0,5.737-3,9.712,2.347,0,0,10.311-2.907,12.811,11.507,0,0,5.311-.936,6.008,4.971a13.886,13.886,0,0,1-2.5,9.842s2.983,2.087,1.639,7.518a7.03,7.03,0,0,1-5.237,5.316s-1.107,7.809-4.713,10.111-8.508,1.22-8.508,1.22-1.3,4.212-5.508,3.836-9.417-4.119-14.122-2.432-16.925-.092-16.925-.092-13.712-5.723-9.614-18.841c0,0-7.2-6.091-.893-13.4,0,0-4.606-11.438,4.5-18.181S595.128,462.092,595.128,462.092Z" transform="translate(-0.559 4.814)" fill="#031220"/>
      <path id="Path_3648" data-name="Path 3648" d="M601.595,538.074l-1.639,11.584s-3.737,16.677,1.074,19.892,20.433-20.367,20.433-20.367l-1.639-29.342Z" transform="translate(-5.477 -9.453)" fill="#f7a491"/>
      <path id="Path_3649" data-name="Path 3649" d="M620.678,529.345c-3.975,9.973-13.425,16.163-20.138,18.549l1.41-9.819,18.2-18.234Z" transform="translate(-5.832 -9.453)" fill="#f47458"/>
      <path id="Path_3650" data-name="Path 3650" d="M605.85,479.4a17.523,17.523,0,0,0-13.893,1.444,15.468,15.468,0,0,0-7.745,10.892,109,109,0,0,0-1.344,14.851c-.262,13.524,7.221,26.688,13.778,26.688s24.695-8.753,25.351-27.954C622.407,493.479,616.079,482.74,605.85,479.4Z" transform="translate(-2.643 0.153)" fill="#f7a491"/>
      <path id="Path_3651" data-name="Path 3651" d="M624.72,513.79c0,2.984,2.106,5.37,4.713,5.37s4.721-2.417,4.721-5.37-2.115-5.37-4.721-5.37S624.72,510.806,624.72,513.79Z" transform="translate(-10.194 -6.794)" fill="#f7a491"/>
      <path id="Path_3652" data-name="Path 3652" d="M574.648,469.626c-6.778,5.025-9.147,12.665-5.3,17.053s12.458,3.882,19.236-1.143,9.155-12.658,5.311-17.053S581.426,464.6,574.648,469.626Z" transform="translate(0.127 3.202)" fill="#031220"/>
      <path id="Path_3653" data-name="Path 3653" d="M649.245,572.624c-8.2-2.861-12.188,65.9-13.294,94.21-14.482,1.3-39.743,0-46.029-.43-2.959-.207-9.778-2.539-12.72-2.9a31.753,31.753,0,0,0-7.229-.322c-.541.092-15.646,5.853-16.933,7.119-1.639,1.534-5.934,5.516-5.2,7.226s8.327-4.764,8.327-4.764l3.713-1.941c-4.623,4.211-13.442,9.758-12.171,11.783s9.2-3.659,14.868-7.5c-4.868,4.1-10.909,11.43-9.516,12.573,1.254,1.028,8.122-7.456,15.466-9.9,2.721-.905,5.434,1.6,7.581,1.9,1.574.222,4,.7,5.541.292l7.958-2.1c2.7.222,2.77,1.718,5.508,2.263,3.18.629,8.385,1.3,12.433,2.217,23.285,5.308,31.055,7.771,38.186,7.771C667.325,690.1,668.579,579.39,649.245,572.624Z" transform="translate(3.722 -21.725)" fill="#f7a491"/>
      <path id="Path_3654" data-name="Path 3654" d="M683.255,635.233c1.533-28.99,1.311-64.73-16.114-70.828-6.877-2.4-19,12.059-16.818,71.419C659.626,636.538,673.28,637.113,683.255,635.233Z" transform="translate(-14.765 -19.774)" fill="#031220"/>
      <path id="Path_3655" data-name="Path 3655" d="M571.63,640.57h1.77l26.7,61.2-1.836-.261Z" transform="translate(-0.617 -37.569)" fill="#f79c8d"/>
      <path id="Path_3656" data-name="Path 3656" d="M516.732,908.86s2.418,7.234-1.91,12.021-22.335,9.474-24.7,12.067-2.18,4.8-2.18,4.8l50.521-1.3-.549-14.238-2.328-10.226Z" transform="translate(14.481 -100.047)" fill="#f7a491"/>
      <path id="Path_3657" data-name="Path 3657" d="M509.959,927.309s12.983,4.894,19.253,1.995,6.082-3.705,7.9-2.624,2.459,14.43,2.459,14.43l-56.807,1.534c-3.959-.084-5.959-2.8-2.746-5.124a47.522,47.522,0,0,1,6.2-3.437C490.657,931.728,509.959,927.309,509.959,927.309Z" transform="translate(16.197 -104.09)" fill="#355389"/>
      <path id="Path_3658" data-name="Path 3658" d="M515.62,738.31c-3.91-7.671-12.786-17.644-28.416-11.63-14.9,5.73-18.9,19.822-14.2,34.244s35.661,99.243,36.743,110.9l24.711.153s-4.491-67.154-5.59-83.386C527.8,772.976,522.374,751.581,515.62,738.31Z" transform="translate(17.51 -57.192)" fill="#3c8f7c"/>
      <path id="Path_3659" data-name="Path 3659" d="M475.262,640.57h82.625a5.4,5.4,0,0,1,4.983,3.13l25.408,58.071H633.9a2.241,2.241,0,0,1,2.311,2.163h0a2.087,2.087,0,0,1-.672,1.537,2.386,2.386,0,0,1-1.64.634H504.219a9.065,9.065,0,0,1-8.254-5L470.345,647.7a4.77,4.77,0,0,1,.384-4.817,5.494,5.494,0,0,1,4.534-2.309Z" transform="translate(17.74 -37.569)" fill="#f47458"/>
      <path id="Path_3660" data-name="Path 3660" d="M530.692,682.944a4.821,4.821,0,0,0,5.434,3.9,4.527,4.527,0,0,0,3.41-5.546,4.82,4.82,0,0,0-5.434-3.9A4.5,4.5,0,0,0,530.692,682.944Z" transform="translate(6.79 -46.128)" fill="#fff"/>
      <ellipse id="Ellipse_229" data-name="Ellipse 229" cx="40.8" cy="38.264" rx="40.8" ry="38.264" transform="translate(728.977 444.33)" fill="#9bc1f9" opacity="0.3"/>
      <rect id="Rectangle_678" data-name="Rectangle 678" width="15.04" height="1.082" transform="translate(725.895 481.834)" fill="#184655"/>
      <rect id="Rectangle_679" data-name="Rectangle 679" width="15.04" height="1.082" transform="translate(798.702 481.834)" fill="#184655"/>
      <rect id="Rectangle_680" data-name="Rectangle 680" width="1.156" height="14.107" transform="translate(769.13 441.729)" fill="#184655"/>
      <rect id="Rectangle_681" data-name="Rectangle 681" width="1.156" height="14.107" transform="translate(769.13 509.735)" fill="#184655"/>
      <path id="Path_3661" data-name="Path 3661" d="M815.1,483.254a1.249,1.249,0,1,1-1.238-1.174A1.209,1.209,0,0,1,815.1,483.254Z" transform="translate(-44.087 -0.66)" fill="#184655"/>
      <path id="Path_3662" data-name="Path 3662" d="M809.091,477.591a.569.569,0,0,1-.393-.153l-22.375-20.981a.513.513,0,0,1,0-.767.593.593,0,0,1,.82,0l22.375,20.981a.513.513,0,0,1,0,.767.6.6,0,0,1-.426.153Z" transform="translate(-39.313 5.524)" fill="#184655"/>
      <path id="Path_3663" data-name="Path 3663" d="M821.27,504.813a.431.431,0,0,1-.2-.222l-7.229-20.482a.386.386,0,0,1,.262-.483.417.417,0,0,1,.508.238l7.229,20.49a.347.347,0,0,1-.019.289.388.388,0,0,1-.236.187A.436.436,0,0,1,821.27,504.813Z" transform="translate(-44.304 -1.016)" fill="#184655"/>
      <path id="Path_3664" data-name="Path 3664" d="M893.431,589.8l3.639-5.531-2.926-1.112a1.157,1.157,0,0,1-.688-1.534h0a1.215,1.215,0,0,1,.677-.641,1.333,1.333,0,0,1,.963,0l3.369,1.281,3.279-4.971-3.131-1.189a1.211,1.211,0,0,1-.688-.632,1.1,1.1,0,0,1,0-.9h0a1.215,1.215,0,0,1,.677-.641,1.333,1.333,0,0,1,.963,0l3.574,1.35,3.778-5.692a1.309,1.309,0,0,1,1.533-.468l.549.207a1.2,1.2,0,0,1,.716.719,1.1,1.1,0,0,1-.126.976l-3.516,5.37,5.18,1.964,3.778-5.692a1.3,1.3,0,0,1,1.533-.468l.6.222a1.216,1.216,0,0,1,.717.723,1.116,1.116,0,0,1-.119.98l-3.516,5.37,2.918,1.1a1.218,1.218,0,0,1,.685.633,1.1,1.1,0,0,1,0,.9h0a1.2,1.2,0,0,1-.674.647,1.316,1.316,0,0,1-.965,0l-3.377-1.281-3.2,4.994,3.123,1.181a1.218,1.218,0,0,1,.685.633,1.1,1.1,0,0,1,0,.9h0a1.207,1.207,0,0,1-.675.644,1.325,1.325,0,0,1-.964,0l-3.565-1.358-3.86,5.876a1.308,1.308,0,0,1-1.541.468l-.631-.245a1.2,1.2,0,0,1-.721-.717,1.1,1.1,0,0,1,.123-.978l3.639-5.531-5.18-1.971-3.868,5.869a1.3,1.3,0,0,1-1.533.468l-.639-.246a1.2,1.2,0,0,1-.7-.71A1.1,1.1,0,0,1,893.431,589.8Zm13.2-4.434,3.278-4.971-5.18-1.964-3.278,4.971Z" transform="translate(-58.634 -20.909)" fill="#07345a"/>
      <path id="Path_3665" data-name="Path 3665" d="M503.429,392.807l3.721-7.863-4.811-7.341a1.118,1.118,0,0,1,.006-1.249,1.293,1.293,0,0,1,1.2-.547l9.139.9,5.959-6.551a1.312,1.312,0,0,1,1.309-.412,1.214,1.214,0,0,1,.929.957l1.926,8.438,8.5,3.283a1.19,1.19,0,0,1,.779,1.016,1.165,1.165,0,0,1-.632,1.1l-7.95,4.311-.713,8.576a1.186,1.186,0,0,1-.793,1,1.32,1.32,0,0,1-1.3-.229l-6.844-5.746-8.967,2.033a1.314,1.314,0,0,1-1.3-.4A1.121,1.121,0,0,1,503.429,392.807Z" transform="translate(11.916 25.51)" fill="#f48c7f"/>
      <path id="Path_3666" data-name="Path 3666" d="M832.561,394.561l2.795-5.9-3.606-5.493a.842.842,0,0,1,0-.936.973.973,0,0,1,.9-.414l6.86.66,4.467-4.91a.992.992,0,0,1,.947-.273.92.92,0,0,1,.692.664l1.443,6.306,6.377,2.462a.9.9,0,0,1,.582.761.876.876,0,0,1-.467.827l-5.967,3.237-.533,6.436a.889.889,0,0,1-.589.756.992.992,0,0,1-.984-.166l-5.131-4.311-6.7,1.534a.981.981,0,0,1-.966-.3.837.837,0,0,1-.115-.946Z" transform="translate(-47.514 23.748)" fill="#f7cc7f"/>
      <path id="Path_3667" data-name="Path 3667" d="M797.811,614.752l-.443-4.887-4.59-2.432a.66.66,0,0,1-.37-.624.672.672,0,0,1,.444-.58l4.828-1.9,1.065-4.8a.687.687,0,0,1,.519-.522.743.743,0,0,1,.727.215l3.426,3.713,5.213-.537a.739.739,0,0,1,.681.306.639.639,0,0,1,.016.707l-2.713,4.2,2.156,4.472a.641.641,0,0,1-.1.706.75.75,0,0,1-.72.23l-5.1-1.12-3.877,3.306a.761.761,0,0,1-.721.1A.683.683,0,0,1,797.811,614.752Z" transform="translate(-40.442 -27.884)" fill="#f48c7f"/>
      <path id="Path_3668" data-name="Path 3668" d="M289.146,522.026l2.049-4.327-2.647-4.02a.617.617,0,0,1,0-.688.713.713,0,0,1,.66-.3l5.032.483,3.278-3.6a.715.715,0,0,1,.7-.226.666.666,0,0,1,.515.495l1.065,4.6,4.672,1.81a.649.649,0,0,1,.43.555.636.636,0,0,1-.348.6l-4.377,2.378-.385,4.718a.658.658,0,0,1-.439.554.733.733,0,0,1-.725-.125l-3.762-3.161-4.918,1.112a.725.725,0,0,1-.678-.209A.62.62,0,0,1,289.146,522.026Z" transform="translate(50.466 -7.006)" fill="#f7cc7f"/>
      <path id="Path_3669" data-name="Path 3669" d="M482.551,511.826,484.6,507.5l-2.623-4.035a.609.609,0,0,1,0-.687.706.706,0,0,1,.662-.3l5.024.483,3.279-3.605a.726.726,0,0,1,.7-.209.673.673,0,0,1,.509.5l1.057,4.6,4.672,1.8a.657.657,0,0,1,.432.557.642.642,0,0,1-.342.609l-4.377,2.37-.393,4.718a.658.658,0,0,1-.433.553.734.734,0,0,1-.722-.116l-3.762-3.161-4.918,1.1a.718.718,0,0,1-.7-.194A.613.613,0,0,1,482.551,511.826Z" transform="translate(15.574 -4.631)" fill="#50bfa5"/>
      <path id="Path_3670" data-name="Path 3670" d="M386.341,422.366l8.114-1.1,3.336,12.028,12.081-.245,4.065,8.622,4.664-1.933-5.442-11.522-11.442.23-3.475-12.512-12.212,1.657Z" transform="translate(32.863 14.745)" fill="#50bfa5"/>
      <path id="Path_3671" data-name="Path 3671" d="M364.507,683.424l6.139-5.086,9.835,8.346,9.958-6.4L398.9,685.4l2.762-4-11.3-6.843-9.434,6.06-10.237-8.676-9.237,7.648Z" transform="translate(37.297 -44.874)" fill="#07345a"/>
      <path id="Path_3672" data-name="Path 3672" d="M247.432,686.195l5.155-7.84-4.139-1.534a1.713,1.713,0,0,1-.967-.888,1.552,1.552,0,0,1-.008-1.268h0a1.814,1.814,0,0,1,2.3-.913l4.778,1.81,4.606-7.1-4.418-1.672a1.721,1.721,0,0,1-.968-.892,1.559,1.559,0,0,1-.008-1.271h0a1.814,1.814,0,0,1,2.3-.913l5.057,1.925,5.344-8.062a1.853,1.853,0,0,1,2.172-.66l.77.291a1.7,1.7,0,0,1,1.006,1.022,1.559,1.559,0,0,1-.186,1.379l-4.975,7.6,7.327,2.785,5.352-8.055a1.826,1.826,0,0,1,2.164-.667l.82.322a1.7,1.7,0,0,1,1.006,1.022,1.559,1.559,0,0,1-.186,1.379l-4.975,7.6,4.139,1.534a1.623,1.623,0,0,1,.975,2.156h0a1.707,1.707,0,0,1-.949.905,1.874,1.874,0,0,1-1.355.008l-4.68-1.741-4.532,7.057,4.418,1.68a1.62,1.62,0,0,1,.934,2.14h0a1.707,1.707,0,0,1-.949.905,1.874,1.874,0,0,1-1.355.008l-5.057-1.918-5.467,8.308a1.826,1.826,0,0,1-2.172.667l-.9-.338a1.711,1.711,0,0,1-1-1.028A1.573,1.573,0,0,1,259,690.56l5.155-7.832-7.336-2.762-5.467,8.316a1.835,1.835,0,0,1-2.172.66l-.9-.338a1.707,1.707,0,0,1-1.021-1.02,1.566,1.566,0,0,1,.177-1.388Zm18.679-6.283,4.606-7.034-7.295-2.777-4.606,7.034Z" transform="translate(57.912 -41.347)" fill="#50bfa5"/>
      <path id="Path_3673" data-name="Path 3673" d="M804.457,790.394c-.525-4.334-1.147-8.768-3.278-12.634-2.615-4.7-7.2-8.093-11.212-11.829a65.174,65.174,0,0,1-16.72-24.939c-2.68-7.242-4.016-14.951-7.7-21.786-2.254-4.173-5.328-7.9-7.885-11.921-6.049-9.489-9.335-20.712-17.531-28.644a32.909,32.909,0,0,0,8.311,27.241c2.016,2.2,4.36,4.188,5.893,6.712,2.795,4.6,2.541,10.164,2.869,15.427a64.564,64.564,0,0,0,8.655,28.383c5.385,9.206,13.114,17.483,16.023,27.662,2.156,7.625,1.508,16.179,6.106,22.791a5.728,5.728,0,0,1,1.188,2.3,4.7,4.7,0,0,1-.09,1.435c-.1.614-.205,1.227-.312,1.841-1.041,6.244-2.123,14.192,3.615,18.864,3.967,3.237,9.081,3.306,11.934-.99s2.623-10.671,2.41-15.55C806.342,806.6,805.433,798.465,804.457,790.394Z" transform="translate(-30.942 -46.434)" fill="#3c8f7c"/>
      <path id="Path_3674" data-name="Path 3674" d="M824.259,776.314c-2.238-7.226-5.7-14.107-7.426-21.479-1.688-7.127-1.7-14.491-1.7-21.786v-24a82.991,82.991,0,0,0-.893-14.89c-1.885-10.571-7.754-20.336-8.745-31.007-.435-4.6.066-9.282-.475-13.885a20.772,20.772,0,0,0-2.336-7.671,3.751,3.751,0,0,0-6.557.169c-2.844,5.784-4.655,12.028-3.5,18.219.688,3.713,2.41,7.18,3.688,10.74,5.737,15.91,2.68,33.523,7.106,49.786,1.328,4.91,3.352,9.727,3.582,14.79.566,12.113-9.106,23.182-8.2,35.288.729,9.927,8.352,18.135,11.548,27.616,1.795,5.3,2.172,10.97,4.1,16.24,1.492,4.089,4.959,9.06,10.344,7.817,5.106-1.181,3.565-5.086,3.336-8.814C827.333,800.885,828.062,788.642,824.259,776.314Z" transform="translate(-40.417 -37.378)" fill="#327f6b"/>
      <path id="Path_3675" data-name="Path 3675" d="M840.8,785.151c-.229-3.759-.9-7.533-.344-11.261.475-3.145,1.811-6.137,2.77-9.152,1.787-5.715,2.229-11.706,2.664-17.644q1.18-16.2,2.369-32.388c1.221-16.785,2.459-33.608,5.8-50.131.934-4.6,1.975-9.558-.221-13.747-.467-.882-1.377-1.826-2.385-1.534-.713.207-1.057.944-1.32,1.6-7.327,18.633-10.1,38.7-18.277,57.028-1.959,4.388-4.237,8.707-5.254,13.371-1.213,5.6-.549,11.384-.393,17.1a75.572,75.572,0,0,1-3.041,24.318c-1.262,4.119-2.959,8.147-3.647,12.389-.869,5.286-.139,10.671.4,15.987a230.081,230.081,0,0,1,1.049,30.8c-.2,6.045,5.254,5.884,8.86,2.171,2.524-2.593,2.459-5.439,3.369-8.668C836.037,804.782,841.487,796.65,840.8,785.151Z" transform="translate(-45.261 -39.588)" fill="#3c8f7c"/>
      <path id="Path_3676" data-name="Path 3676" d="M796.81,837.255c-4.811-7.249-14.409-11.369-17.491-19.4-.82-2.041-1.09-4.242-2.049-6.221-2.123-4.4-6.958-6.9-11.7-8.9a1.068,1.068,0,0,0-.957.061.932.932,0,0,0-.469.783h0a3.161,3.161,0,0,0,1.525,2.716,18.189,18.189,0,0,1,7.68,9.8c1.467,4.71.82,9.873,2.656,14.468,1.533,3.836,4.68,7.019,6.164,10.893,1.352,3.544,1.213,7.418,1.852,11.131s2.393,7.671,6.041,9.205C803.252,867.518,799.957,841.934,796.81,837.255Z" transform="translate(-35.343 -75.313)" fill="#327f6b"/>
      <path id="Path_3677" data-name="Path 3677" d="M865.726,829.943c-.2,3.506.369,7.173-1.1,10.4-.934,2.064-2.623,3.736-4,5.562-4.86,6.436-6.622,15.542-14.089,19.178a2.7,2.7,0,0,1-1.582.361,2.382,2.382,0,0,1-1.574-1.5c-1.828-3.989.221-8.484,1.434-12.673a2.943,2.943,0,0,0,0-2.225c-.41-.767-1.352-1.066-1.992-1.649-1.27-1.158-1.156-3.068-.9-4.733a100.932,100.932,0,0,1,2.664-12.228,20.653,20.653,0,0,1,2.795-6.544c1.549-2.156,3.795-3.766,5.9-5.462a65.349,65.349,0,0,0,20.392-28.184c.82-2.347,1.639-4.833,3.418-6.674s4.959-2.785,7.122-1.358c1.549,1.013-4.778,10.532-5.516,11.676-2.106,3.268-2.131,6.137-3.328,9.727C872.479,812.483,866.283,820.43,865.726,829.943Z" transform="translate(-49.345 -70.395)" fill="#3c8f7c"/>
      <path id="Path_3678" data-name="Path 3678" d="M855.5,824.419a41.034,41.034,0,0,0,3.221-10.287c.508-3.951-.164-7.993.557-11.921.934-5.048,4.1-9.489,5.631-14.391,1.123-3.544,1.4-7.272,2.074-10.916,1.934-10.418,7.163-20.6,5.664-31.076-.328-2.3-1.426-4.94-3.844-5.37-2.188-.353-4.18,1.534-4.746,3.536s-.148,4.135,0,6.214a24.448,24.448,0,0,1-4.918,16.447c-3.434,4.549-8.426,7.978-11.475,12.75-3.795,5.846-4.311,12.98-6.254,19.577-3.844,13.118-13.507,24.548-15.269,38.072-.7,5.37.647,11.913,5.95,14.061C847.42,857.359,852.051,832.826,855.5,824.419Z" transform="translate(-46.497 -60.82)" fill="#327f6b"/>
      <path id="Path_3679" data-name="Path 3679" d="M820.767,871.63H785.589a3.829,3.829,0,0,0-2.927,1.325,3.32,3.32,0,0,0-.7,2.971l12.827,50.63a3.687,3.687,0,0,0,3.623,2.685h42.267a3.688,3.688,0,0,0,3.623-2.685l12.819-50.63a3.312,3.312,0,0,0-.7-2.971,3.82,3.82,0,0,0-2.925-1.325Z" transform="translate(-38.539 -91.377)" fill="#f47458"/>
      <rect id="Rectangle_682" data-name="Rectangle 682" width="171.012" height="8.27" transform="translate(258.232 721.008)" fill="#184655"/>
      <rect id="Rectangle_683" data-name="Rectangle 683" width="111.812" height="7.234" transform="translate(261.331 768.961)" fill="#184655"/>
      <rect id="Rectangle_684" data-name="Rectangle 684" width="7.213" height="112.752" transform="translate(405.255 725.143)" fill="#184655"/>
      <rect id="Rectangle_685" data-name="Rectangle 685" width="7.213" height="112.752" transform="translate(303.237 725.143)" fill="#184655"/>
      <path id="Path_3680" data-name="Path 3680" d="M305.239,912.246,344.1,800.461l-6.368-1.941L298.19,912.246Z" transform="translate(48.708 -74.352)" fill="#184655"/>
      <path id="Path_3681" data-name="Path 3681" d="M171.89,912.253l33.235-112.031-6.459-1.672-33.727,113.7Z" transform="translate(72.745 -74.359)" fill="#184655"/>
      <path id="Path_3682" data-name="Path 3682" d="M803.607,425.35c-26.386-.055-47.818,19.93-47.857,44.626s21.329,44.741,47.715,44.759,47.786-20,47.786-44.692C851.279,445.388,829.949,425.38,803.607,425.35Zm2.549,82.849c-22.541,1.365-41.993-14.637-43.439-35.735s15.663-39.3,38.206-40.636,41.975,14.683,43.394,35.783a36.712,36.712,0,0,1-10.083,27.715,41.928,41.928,0,0,1-28.078,12.9Z" transform="translate(-33.83 12.551)" fill="#184655"/>
      <rect id="Rectangle_686" data-name="Rectangle 686" width="785.493" height="4.986" transform="translate(192.45 837.204)" fill="#042a44"/>
      <path id="Path_3685" data-name="Path 3685" d="M73.808,0H1034.24V527.412H73.808Z" transform="translate(3.37 685.027)" fill="#57cc99" opacity="0.46"/>
    </g>
  </g>
</svg>
