<svg id="Group_7" data-name="Group 7" xmlns="http://www.w3.org/2000/svg" width="252.559" height="59.333" viewBox="0 0 252.559 59.333">
  <path id="Path_146" data-name="Path 146" d="M708.919,533.4a5.22,5.22,0,1,0,5.035,5.218A4.926,4.926,0,0,0,708.919,533.4Z" transform="translate(-568.708 -533.4)" fill="#57cc99"/>
  <path id="Path_147" data-name="Path 147" d="M758.489,561.444v32.638h-9.339V569.389h-15.1v13.456c0,2.72,1.152,3.822,3.155,3.764a10.867,10.867,0,0,0,4.365-1.214l1.941,6.854a17.376,17.376,0,0,1-8.5,2.244c-5.827,0-10.254-3.335-10.254-10.07V569.328H714.329v24.737H705V561.427h9.342v1.455h10.434V553.92h9.282V562.9h15.105v-1.455Z" transform="translate(-569.447 -546.944)" fill="#57cc99"/>
  <path id="Path_148" data-name="Path 148" d="M838.825,533.4a5.22,5.22,0,1,0,5.035,5.218A4.923,4.923,0,0,0,838.825,533.4Z" transform="translate(-654.452 -533.4)" fill="#57cc99"/>
  <path id="Path_149" data-name="Path 149" d="M383.623,575.8v8.84H374.28v-45h9.342v24.754l11.95-12.317H406.19l-11.947,12.559,12.491,20H395.7l-7.888-13.259Z" transform="translate(-351.164 -537.518)" fill="#fff"/>
  <path id="Path_150" data-name="Path 150" d="M493.55,604.17c-2.183,2.72-5.7,4.246-10.25,4.246-6.976,0-11.219-4.246-11.219-10.2,0-6.12,4.42-9.768,12.433-9.829h8.979v-.608c0-3.458-2.305-5.44-6.8-5.44a20.654,20.654,0,0,0-9.706,2.849l-2.893-6.449A30.614,30.614,0,0,1,488.817,575c8.737,0,13.772,4.365,13.834,11.705L502.712,608H493.55Zm-.061-7.34v-2.91h-7.34c-3.58,0-5.338,1.091-5.338,3.7,0,2.489,1.941,4.124,5.1,4.124C489.85,601.743,492.944,599.621,493.488,596.83Z" transform="translate(-415.714 -560.857)" fill="#fff"/>
  <path id="Path_151" data-name="Path 151" d="M618.8,591.949c0,9.886-6.007,16.5-15.166,16.5a12.343,12.343,0,0,1-10.5-5.1v16.5H583.8v-44.4h9.342v4.79a12.1,12.1,0,0,1,10.311-5.1C612.616,575.144,618.8,581.892,618.8,591.949Zm-9.465-.3c0-5.219-3.274-8.979-8.068-8.979s-8.129,3.7-8.129,8.979c0,5.4,3.335,9.036,8.129,9.036S609.339,596.984,609.339,591.646Z" transform="translate(-489.452 -560.949)" fill="#fff"/>
  <path id="Path_152" data-name="Path 152" d="M894.721,549.926v2.72h7.7v6.49h-7.7v24.686h-9.281V559.145H881.07v-6.49h4.369v-3.094c0-7.279,5.46-11.162,12.011-11.162A16.12,16.12,0,0,1,906,540.705l-3.338,6.8a6.991,6.991,0,0,0-4.08-1.394A3.536,3.536,0,0,0,894.721,549.926Z" transform="translate(-685.658 -536.7)" fill="#fff"/>
  <path id="Path_153" data-name="Path 153" d="M966.419,612.345c-2.3,5.779-6.31,8.554-11.95,8.554a13.133,13.133,0,0,1-8.859-3.155l3.944-6.735a6.324,6.324,0,0,0,4.246,1.761,4.528,4.528,0,0,0,4.308-2.914l.911-1.819L945.49,576.08h9.645l8.554,22.439,7.7-22.439h9.343Z" transform="translate(-728.177 -561.57)" fill="#fff"/>
  <path id="Path_154" data-name="Path 154" d="M7.391,0A7.391,7.391,0,1,1,0,7.391,7.391,7.391,0,0,1,7.391,0Z" transform="translate(0 2.122)" fill="#57cc99"/>
</svg>
